HIERARCHY
ROOT mixamorig:Hips
{
	OFFSET 0.000000 201.639420 0.000000
	CHANNELS 6 Xposition Yposition Zposition Xrotation Yrotation Zrotation
	JOINT mixamorig:Spine
	{
		OFFSET 0.006200 19.524994 -2.481800
		CHANNELS 3 Xrotation Yrotation Zrotation
		JOINT mixamorig:Spine1
		{
			OFFSET -0.000900 22.835007 -2.825400
			CHANNELS 3 Xrotation Yrotation Zrotation
			JOINT mixamorig:Spine2
			{
				OFFSET -0.020600 26.552490 -3.193300
				CHANNELS 3 Xrotation Yrotation Zrotation
				JOINT mixamorig:Neck
				{
					OFFSET -0.060000 30.701813 1.352200
					CHANNELS 3 Xrotation Yrotation Zrotation
					JOINT mixamorig:Head
					{
						OFFSET -0.087200 22.547607 3.670900
						CHANNELS 3 Xrotation Yrotation Zrotation
						JOINT mixamorig:HeadTop_End
						{
							OFFSET -0.830600 40.355194 7.893500
							CHANNELS 3 Xrotation Yrotation Zrotation
							End Site
							{
								OFFSET 0.000000 30.592346 0.000000
							}
						}
						JOINT mixamorig:RightEye
						{
							OFFSET -6.302100 18.118591 16.197100
							CHANNELS 3 Xrotation Yrotation Zrotation
							End Site
							{
								OFFSET 0.000000 30.592346 0.000000
							}
						}
						JOINT mixamorig:LeftEye
						{
							OFFSET 6.741500 18.382690 16.401899
							CHANNELS 3 Xrotation Yrotation Zrotation
							End Site
							{
								OFFSET 0.000000 30.592346 0.000000
							}
						}
					}
				}
				JOINT mixamorig:LeftShoulder
				{
					OFFSET 11.924900 18.230499 1.425400
					CHANNELS 3 Xrotation Yrotation Zrotation
					JOINT mixamorig:LeftArm
					{
						OFFSET 25.435989 -0.697632 -5.229300
						CHANNELS 3 Xrotation Yrotation Zrotation
						JOINT mixamorig:LeftForeArm
						{
							OFFSET 54.684776 0.000000 0.000000
							CHANNELS 3 Xrotation Yrotation Zrotation
							JOINT mixamorig:LeftHand
							{
								OFFSET 55.098175 0.000000 0.000000
								CHANNELS 3 Xrotation Yrotation Zrotation
								JOINT mixamorig:LeftHandMiddle1
								{
									OFFSET 23.369751 0.000000 0.000000
									CHANNELS 3 Xrotation Yrotation Zrotation
									JOINT mixamorig:LeftHandMiddle2
									{
										OFFSET 6.378677 0.000000 0.000000
										CHANNELS 3 Xrotation Yrotation Zrotation
										JOINT mixamorig:LeftHandMiddle3
										{
											OFFSET 6.148331 0.000000 0.000000
											CHANNELS 3 Xrotation Yrotation Zrotation
											JOINT mixamorig:LeftHandMiddle4
											{
												OFFSET 6.582504 0.000000 0.000000
												CHANNELS 3 Xrotation Yrotation Zrotation
												End Site
												{
													OFFSET -1.168900 6.395691 1.028606
												}
											}
										}
									}
								}
								JOINT mixamorig:LeftHandThumb1
								{
									OFFSET 7.235672 -3.848206 5.434273
									CHANNELS 3 Xrotation Yrotation Zrotation
									JOINT mixamorig:LeftHandThumb2
									{
										OFFSET 6.568451 -3.792297 3.792300
										CHANNELS 3 Xrotation Yrotation Zrotation
										JOINT mixamorig:LeftHandThumb3
										{
											OFFSET 6.063080 -3.500519 3.500518
											CHANNELS 3 Xrotation Yrotation Zrotation
											JOINT mixamorig:LeftHandThumb4
											{
												OFFSET 4.793182 -2.767334 2.767349
												CHANNELS 3 Xrotation Yrotation Zrotation
												End Site
												{
													OFFSET 0.101639 6.054260 1.275483
												}
											}
										}
									}
								}
								JOINT mixamorig:LeftHandIndex1
								{
									OFFSET 23.101074 -0.309540 4.992809
									CHANNELS 3 Xrotation Yrotation Zrotation
									JOINT mixamorig:LeftHandIndex2
									{
										OFFSET 6.226883 0.000000 0.000000
										CHANNELS 3 Xrotation Yrotation Zrotation
										JOINT mixamorig:LeftHandIndex3
										{
											OFFSET 6.094330 0.000000 0.000000
											CHANNELS 3 Xrotation Yrotation Zrotation
											JOINT mixamorig:LeftHandIndex4
											{
												OFFSET 5.482605 0.000000 0.000000
												CHANNELS 3 Xrotation Yrotation Zrotation
												End Site
												{
													OFFSET -1.427902 5.233032 0.797164
												}
											}
										}
									}
								}
								JOINT mixamorig:LeftHandRing1
								{
									OFFSET 22.299240 0.021149 -3.964172
									CHANNELS 3 Xrotation Yrotation Zrotation
									JOINT mixamorig:LeftHandRing2
									{
										OFFSET 6.321869 0.000000 0.000000
										CHANNELS 3 Xrotation Yrotation Zrotation
										JOINT mixamorig:LeftHandRing3
										{
											OFFSET 5.899796 0.000000 0.000000
											CHANNELS 3 Xrotation Yrotation Zrotation
											JOINT mixamorig:LeftHandRing4
											{
												OFFSET 6.517899 0.000000 0.000000
												CHANNELS 3 Xrotation Yrotation Zrotation
												End Site
												{
													OFFSET -1.637299 6.232208 0.980890
												}
											}
										}
									}
								}
								JOINT mixamorig:LeftHandPinky1
								{
									OFFSET 20.463791 -0.302338 -8.562233
									CHANNELS 3 Xrotation Yrotation Zrotation
									JOINT mixamorig:LeftHandPinky2
									{
										OFFSET 6.908646 0.000000 0.000000
										CHANNELS 3 Xrotation Yrotation Zrotation
										JOINT mixamorig:LeftHandPinky3
										{
											OFFSET 4.622849 0.000000 0.000000
											CHANNELS 3 Xrotation Yrotation Zrotation
											JOINT mixamorig:LeftHandPinky4
											{
												OFFSET 5.216080 0.000000 0.000000
												CHANNELS 3 Xrotation Yrotation Zrotation
												End Site
												{
													OFFSET -0.606308 5.116241 0.814926
												}
											}
										}
									}
								}
							}
						}
					}
				}
				JOINT mixamorig:RightShoulder
				{
					OFFSET -12.001300 18.284088 1.348900
					CHANNELS 3 Xrotation Yrotation Zrotation
					JOINT mixamorig:RightArm
					{
						OFFSET -25.308500 -0.751312 -5.164599
						CHANNELS 3 Xrotation Yrotation Zrotation
						JOINT mixamorig:RightForeArm
						{
							OFFSET -54.684429 0.000000 0.000000
							CHANNELS 3 Xrotation Yrotation Zrotation
							JOINT mixamorig:RightHand
							{
								OFFSET -55.150291 0.000000 0.000000
								CHANNELS 3 Xrotation Yrotation Zrotation
								JOINT mixamorig:RightHandMiddle1
								{
									OFFSET -23.317566 0.000000 0.000000
									CHANNELS 3 Xrotation Yrotation Zrotation
									JOINT mixamorig:RightHandMiddle2
									{
										OFFSET -6.378403 0.000000 0.000000
										CHANNELS 3 Xrotation Yrotation Zrotation
										JOINT mixamorig:RightHandMiddle3
										{
											OFFSET -6.148193 0.000000 0.000000
											CHANNELS 3 Xrotation Yrotation Zrotation
											JOINT mixamorig:RightHandMiddle4
											{
												OFFSET -6.583389 0.000000 0.000000
												CHANNELS 3 Xrotation Yrotation Zrotation
												End Site
												{
													OFFSET 1.171692 6.395905 1.029786
												}
											}
										}
									}
								}
								JOINT mixamorig:RightHandThumb1
								{
									OFFSET -7.190521 -3.860474 5.435846
									CHANNELS 3 Xrotation Yrotation Zrotation
									JOINT mixamorig:RightHandThumb2
									{
										OFFSET -6.567429 -3.791718 3.791708
										CHANNELS 3 Xrotation Yrotation Zrotation
										JOINT mixamorig:RightHandThumb3
										{
											OFFSET -6.062469 -3.500153 3.500166
											CHANNELS 3 Xrotation Yrotation Zrotation
											JOINT mixamorig:RightHandThumb4
											{
												OFFSET -4.792618 -2.767029 2.767022
												CHANNELS 3 Xrotation Yrotation Zrotation
												End Site
												{
													OFFSET -0.100327 6.053253 1.276754
												}
											}
										}
									}
								}
								JOINT mixamorig:RightHandIndex1
								{
									OFFSET -23.048981 -0.310791 4.992554
									CHANNELS 3 Xrotation Yrotation Zrotation
									JOINT mixamorig:RightHandIndex2
									{
										OFFSET -6.227539 0.000000 0.000000
										CHANNELS 3 Xrotation Yrotation Zrotation
										JOINT mixamorig:RightHandIndex3
										{
											OFFSET -6.095047 0.000000 0.000000
											CHANNELS 3 Xrotation Yrotation Zrotation
											JOINT mixamorig:RightHandIndex4
											{
												OFFSET -5.484772 0.000000 0.000000
												CHANNELS 3 Xrotation Yrotation Zrotation
												End Site
												{
													OFFSET 1.420593 5.237305 0.797056
												}
											}
										}
									}
								}
								JOINT mixamorig:RightHandRing1
								{
									OFFSET -22.246323 0.020569 -3.963762
									CHANNELS 3 Xrotation Yrotation Zrotation
									JOINT mixamorig:RightHandRing2
									{
										OFFSET -6.322128 0.000000 0.000000
										CHANNELS 3 Xrotation Yrotation Zrotation
										JOINT mixamorig:RightHandRing3
										{
											OFFSET -5.900024 0.000000 0.000000
											CHANNELS 3 Xrotation Yrotation Zrotation
											JOINT mixamorig:RightHandRing4
											{
												OFFSET -6.518356 0.000000 0.000000
												CHANNELS 3 Xrotation Yrotation Zrotation
												End Site
												{
													OFFSET 1.636398 6.232697 0.982186
												}
											}
										}
									}
								}
								JOINT mixamorig:RightHandPinky1
								{
									OFFSET -20.411011 -0.303314 -8.561701
									CHANNELS 3 Xrotation Yrotation Zrotation
									JOINT mixamorig:RightHandPinky2
									{
										OFFSET -6.907349 0.000000 0.000000
										CHANNELS 3 Xrotation Yrotation Zrotation
										JOINT mixamorig:RightHandPinky3
										{
											OFFSET -4.623840 0.000000 0.000000
											CHANNELS 3 Xrotation Yrotation Zrotation
											JOINT mixamorig:RightHandPinky4
											{
												OFFSET -5.218353 0.000000 0.000000
												CHANNELS 3 Xrotation Yrotation Zrotation
												End Site
												{
													OFFSET 0.602097 5.118835 0.816273
												}
											}
										}
									}
								}
							}
						}
					}
				}
			}
		}
	}
	JOINT mixamorig:LeftUpLeg
	{
		OFFSET 18.168400 -13.561905 -0.039000
		CHANNELS 3 Xrotation Yrotation Zrotation
		JOINT mixamorig:LeftLeg
		{
			OFFSET 0.577358 -80.825211 -3.695000
			CHANNELS 3 Xrotation Yrotation Zrotation
			JOINT mixamorig:LeftFoot
			{
				OFFSET -0.577356 -83.370262 -6.520700
				CHANNELS 3 Xrotation Yrotation Zrotation
				JOINT mixamorig:LeftToeBase
				{
					OFFSET 0.750401 -20.798306 25.135401
					CHANNELS 3 Xrotation Yrotation Zrotation
					JOINT mixamorig:LeftToe_End
					{
						OFFSET -0.000500 0.001200 19.917799
						CHANNELS 3 Xrotation Yrotation Zrotation
						End Site
						{
							OFFSET 0.000000 19.917805 0.000000
						}
					}
				}
			}
		}
	}
	JOINT mixamorig:RightUpLeg
	{
		OFFSET -18.162500 -13.585098 -0.041000
		CHANNELS 3 Xrotation Yrotation Zrotation
		JOINT mixamorig:RightLeg
		{
			OFFSET -0.595024 -80.945297 -3.631900
			CHANNELS 3 Xrotation Yrotation Zrotation
			JOINT mixamorig:RightFoot
			{
				OFFSET 0.595024 -83.218193 -6.561200
				CHANNELS 3 Xrotation Yrotation Zrotation
				JOINT mixamorig:RightToeBase
				{
					OFFSET -0.753601 -20.807106 25.115000
					CHANNELS 3 Xrotation Yrotation Zrotation
					JOINT mixamorig:RightToe_End
					{
						OFFSET 0.000299 0.001700 19.918200
						CHANNELS 3 Xrotation Yrotation Zrotation
						End Site
						{
							OFFSET 0.000000 19.918203 0.000000
						}
					}
				}
			}
		}
	}
}
MOTION
Frames: 4
Frame Time: 0.033333
0.087151 192.786331 2.160874 1.916650 33.395445 -6.759578 21.285127 -3.038480 -1.284707 1.328651 -0.465705 0.807318 1.336594 -0.437651 0.829019 6.606618 -0.284839 -2.275790 -26.270152 -18.431506 -1.767075 0.000000 0.000001 0.000000 0.000000 0.000001 0.000000 0.000000 0.000001 0.000000 -1.422468 -24.539275 -20.310817 18.198793 9.041309 -41.929298 0.000042 -110.054797 0.000043 -13.283275 -20.769265 -39.384592 2.005456 7.489052 -27.605866 0.526710 2.429621 -24.459467 0.526718 2.429628 -24.459481 0.000001 0.000001 0.000001 -7.234528 -7.106184 2.652061 20.913872 45.849038 -9.681003 -6.433262 2.346283 12.984420 -0.000002 0.000003 -0.000000 0.246939 4.271141 -30.580649 0.269450 1.757980 -17.427812 0.269487 1.757980 -17.427820 -0.000001 0.000000 -0.000000 2.142746 7.144779 -35.323088 0.900732 3.123035 -32.169487 0.900717 3.123026 -32.169487 -0.000000 -0.000000 -0.000002 7.126688 14.425462 -34.204375 0.889816 3.105582 -31.967983 0.868023 3.070545 -31.564674 0.000000 -0.000000 0.000001 0.437572 21.225868 10.630340 10.396064 -2.871361 58.265298 0.002051 95.992551 -0.002070 14.285839 17.763594 14.533406 0.313162 -4.858372 6.458106 0.576699 -2.246646 28.789241 0.576397 -2.246087 28.781720 0.000002 -0.000002 0.000001 -7.266568 2.723133 -9.117764 7.547090 -20.162276 -3.241319 -1.717506 -14.695507 -15.341283 0.000004 0.000000 -0.000001 0.353104 2.262717 -3.810700 0.612329 -2.310288 29.686232 0.612357 -2.310296 29.686232 0.000001 0.000003 -0.000001 1.010802 -6.722700 13.817926 0.748604 -2.534236 32.909494 0.747507 -2.532517 32.884349 -0.000001 -0.000001 0.000001 0.600705 -5.051216 14.069914 0.678302 -2.422239 31.283639 0.676829 -2.419806 31.248737 0.000001 -0.000002 0.000002 -19.219097 -5.408922 18.893919 45.720402 7.517170 0.488331 -3.490329 -0.101168 -9.960744 -19.343354 0.138014 -3.459565 0.000000 0.000000 0.000000 -1.916226 -4.894872 -9.259384 24.275638 9.450071 1.071860 -5.611299 11.434883 7.655336 -21.047175 0.050249 -1.124754 0.000000 -0.000001 -0.000000 
-8.036432 188.594650 4.514325 -1.884131 29.821388 -5.149033 24.332996 -3.064219 -2.082904 1.553723 -0.427795 0.685981 1.561460 -0.397121 0.707534 6.289910 -0.187617 -2.480206 -27.031121 -16.711817 -1.060416 -0.000000 -0.000001 -0.000000 -0.000000 -0.000001 -0.000000 -0.000000 -0.000001 -0.000000 -1.395588 -23.860918 -20.420527 16.379497 8.345575 -38.556418 0.000084 -104.125141 0.000114 -8.462784 -21.262983 -35.598823 2.069058 7.653835 -27.192566 0.596635 2.577759 -26.060870 0.596463 2.577362 -26.056567 -0.000000 0.000000 -0.000000 -6.971768 -6.435901 2.396158 21.250665 46.260468 -9.951270 -6.509778 2.144048 12.993824 -0.000002 0.000000 0.000002 0.019542 3.840293 -29.794190 0.367559 2.044176 -20.383521 0.367471 2.044049 -20.382084 -0.000000 0.000000 -0.000000 2.309562 7.358127 -35.657576 1.063718 3.367894 -35.047999 1.063692 3.367845 -35.047661 0.000000 -0.000001 0.000001 7.292770 14.142216 -35.856294 0.970556 3.231233 -33.429504 0.948327 3.197338 -33.032799 -0.000001 0.000000 0.000003 0.675442 21.438333 9.594505 9.293476 -2.532326 61.184117 0.002260 90.505211 -0.002677 19.287722 14.960281 16.801572 0.326517 -5.027822 6.295272 0.598859 -2.286529 29.350491 0.598696 -2.286211 29.345846 0.000001 0.000001 0.000002 -7.070825 2.442845 -9.152592 7.513200 -20.099944 -3.236651 -1.557890 -15.066666 -15.367594 0.000003 0.000000 -0.000001 0.363787 2.402915 -3.817739 0.614869 -2.314712 29.748776 0.614941 -2.314840 29.750521 -0.000000 0.000000 -0.000001 1.105198 -6.742677 15.280223 0.908827 -2.765882 36.373735 0.907579 -2.764182 36.347723 -0.000001 -0.000000 0.000002 0.858341 -5.806200 15.586114 0.805147 -2.619450 34.167188 0.803989 -2.617738 34.141763 -0.000002 0.000002 0.000003 -22.253238 -10.506322 18.453030 57.289649 6.624972 0.824643 4.750673 -0.508864 -3.857550 -27.057692 1.923492 -12.404000 0.000000 -0.000001 -0.000000 -2.016835 -4.244683 -7.342844 31.233304 8.916103 0.663392 -17.118800 13.992588 5.648435 -16.190842 0.000005 -0.000001 0.000000 -0.000001 -0.000000 
-12.772631 187.245224 6.643084 -4.215093 24.388884 -4.555127 25.466828 -2.478227 -2.166574 1.819494 -0.322795 0.416233 1.823928 -0.299786 0.431700 6.228906 -0.061549 -2.783063 -27.329861 -13.847967 -0.791037 -0.000000 0.000000 -0.000001 -0.000000 0.000000 -0.000001 -0.000000 0.000000 -0.000001 -0.844667 -20.963531 -19.588576 15.624871 5.466810 -39.246431 -0.001586 -94.474678 -0.001552 -1.806180 -22.155938 -21.653552 1.981282 7.694109 -25.363590 0.709561 2.796578 -28.468517 0.709150 2.795863 -28.460652 -0.000001 -0.000003 0.000003 -6.686553 -5.744909 2.153962 21.605365 46.684165 -10.236370 -6.568911 1.987234 13.001000 -0.000001 -0.000004 0.000003 -0.437677 2.833149 -27.589458 0.469824 2.300589 -23.081294 0.469585 2.300069 -23.075606 -0.000000 0.000001 -0.000002 2.500803 7.659582 -35.113456 1.239852 3.605526 -37.943569 1.239805 3.605461 -37.942954 -0.000000 -0.000000 -0.000000 7.482112 14.044319 -37.037647 1.008649 3.288107 -34.099149 0.987822 3.257190 -33.734455 0.000002 0.000001 -0.000002 0.704371 22.691989 9.392224 8.621668 -0.949193 59.335636 -0.000679 87.772657 0.000644 22.567421 13.902810 18.127341 0.376406 -5.083431 7.397259 0.650275 -2.375554 30.613953 0.650155 -2.375347 30.611180 0.000002 0.000002 0.000002 -6.826151 2.082967 -9.165599 7.547313 -20.163697 -3.239974 -1.327803 -15.600179 -15.404763 0.000000 -0.000000 0.000001 0.236619 2.349550 -2.201951 0.626859 -2.335530 30.044015 0.626860 -2.335553 30.044339 -0.000000 0.000001 -0.000001 1.236405 -6.685420 17.804497 1.120116 -3.031529 40.549966 1.118627 -3.029785 40.521832 -0.000003 0.000000 -0.000002 1.249580 -6.647322 18.254688 0.957435 -2.830625 37.369567 0.956647 -2.829559 37.353096 -0.000001 0.000003 0.000001 -25.509913 -11.682274 14.831380 67.191392 2.819643 1.357273 7.602364 -1.215992 -1.180927 -24.586482 2.164779 -13.445461 0.000000 -0.000000 0.000000 -3.161950 -2.656835 -5.362884 35.944745 9.126877 -1.140257 -20.209302 15.220421 5.167830 -15.697296 0.000010 0.000005 -0.000000 -0.000000 0.000000 
-14.918612 189.648621 8.985867 -4.987959 18.077429 -4.901403 25.073612 -1.914012 -1.864447 1.967126 -0.246359 0.183128 1.969247 -0.232704 0.193882 6.385653 0.056812 -2.828353 -27.093195 -10.230298 -0.343047 0.000000 0.000000 -0.000000 0.000000 0.000000 -0.000000 0.000000 0.000000 -0.000000 -0.289782 -17.848992 -18.607648 13.668067 3.137590 -45.166467 -0.000034 -79.343466 -0.000040 5.376890 -23.155851 -1.274365 1.963173 7.789695 -24.343020 0.819484 2.990160 -30.646079 0.818917 2.989227 -30.635325 -0.000000 -0.000001 0.000000 -5.983615 -4.075258 1.469388 22.417038 47.619266 -10.890287 -6.836280 1.271887 13.032314 0.000005 -0.000000 -0.000000 -0.695005 2.259391 -26.934685 0.560679 2.502901 -25.249019 0.560488 2.502514 -25.244809 -0.000002 0.000001 -0.000002 2.740865 7.918573 -36.094719 1.402486 3.804479 -40.459575 1.402461 3.804457 -40.459544 0.000001 -0.000002 0.000001 7.466039 13.441291 -39.153882 1.216734 3.575718 -37.574278 1.195154 3.547577 -37.227103 0.000000 0.000002 -0.000003 0.552364 23.715803 9.970391 8.287343 2.106629 54.696896 -0.000878 86.849031 0.000825 20.820741 14.401399 19.325564 0.486350 -5.423128 8.865592 0.675079 -2.416909 31.206813 0.675098 -2.416972 31.207759 0.000002 -0.000001 0.000004 -6.527284 1.587592 -8.992771 7.592536 -20.247981 -3.244610 -1.075572 -16.183139 -15.444535 -0.000001 -0.000001 0.000003 0.044160 2.131282 0.230334 0.623906 -2.330438 29.971908 0.623801 -2.330264 29.969255 0.000001 -0.000001 -0.000002 1.287701 -6.274678 21.699781 1.364998 -3.295863 44.984900 1.363049 -3.293920 44.951080 -0.000000 -0.000001 -0.000001 1.762032 -7.362984 22.219253 1.176813 -3.096476 41.610633 1.176128 -3.095695 41.597942 -0.000001 -0.000001 -0.000001 -28.099376 -8.837122 10.841996 71.099838 -4.548556 0.428391 6.234220 -1.437720 -1.973143 -17.863286 0.452704 -3.078269 0.000002 -0.000001 -0.000000 -4.678543 -0.891105 -3.673841 37.017750 9.306198 -2.596102 -14.676161 18.065488 3.398965 -17.669324 0.000000 0.000000 -0.000000 -0.000001 -0.000000 
